<svg width="600" height="332" viewBox="0 0 600 332" fill="none" xmlns="http://www.w3.org/2000/svg">
<g clip-path="url(#clip0_205_2)">
<path d="M393.775 105.541C393.775 105.541 399.272 96.2065 364.031 91.5643C364.031 91.5643 378.765 80.2975 342.395 72.8198C311.873 66.5717 233.76 62.7827 198.042 0.050293C198.042 0.050293 181.978 92.1163 361.32 102.756C317.495 117.46 296.687 122.253 247.189 110.008C269.001 125.54 299.9 138.614 343.976 145.74L322.59 126.745L395.08 115.879L395.457 119.744C395.457 119.744 411.722 111.94 393.775 105.541ZM384.463 102.706L391.617 106.444C391.617 106.444 385.291 108.351 384.563 102.706H384.463Z" fill="#AA182C"/>
<path d="M200.151 51.9172C200.151 51.9172 219.227 135.025 351.406 103.684C351.406 103.684 250.351 106.921 200.151 51.9172Z" fill="#AA182C"/>
<path d="M438.705 180.644C430.494 180.644 422.467 183.078 415.64 187.639C408.812 192.199 403.491 198.681 400.349 206.265C397.207 213.849 396.385 222.194 397.986 230.245C399.588 238.296 403.542 245.691 409.349 251.495C415.155 257.3 422.552 261.253 430.605 262.854C438.659 264.455 447.006 263.634 454.592 260.492C462.178 257.351 468.662 252.031 473.224 245.206C477.786 238.381 480.221 230.356 480.221 222.148C480.221 216.697 479.147 211.3 477.061 206.265C474.974 201.23 471.916 196.654 468.061 192.8C464.206 188.946 459.629 185.889 454.592 183.803C449.555 181.718 444.157 180.644 438.705 180.644ZM438.705 254.543C432.296 254.543 426.031 252.643 420.702 249.083C415.373 245.524 411.219 240.464 408.767 234.545C406.314 228.625 405.672 222.112 406.923 215.828C408.173 209.544 411.259 203.772 415.791 199.241C420.323 194.711 426.097 191.625 432.383 190.375C438.669 189.125 445.184 189.767 451.106 192.219C457.027 194.671 462.088 198.823 465.648 204.15C469.209 209.477 471.109 215.741 471.109 222.148C471.109 230.739 467.695 238.979 461.618 245.055C455.541 251.13 447.299 254.543 438.705 254.543Z" fill="white"/>
<path d="M149.222 260.415H149.322L149.222 260.189V260.415Z" fill="white"/>
<path d="M0 260.415H9.83936V220.492H37.3996V211.458H9.83936V190.556H38.2028V181.372H0V260.415Z" fill="white"/>
<path d="M84.2371 260.415H95.0302V259.16H95.5824L121.787 199.614L148.77 259.16H149.222V260.189L149.322 260.415H160.116L121.787 177.131L84.2371 260.415Z" fill="white"/>
<path d="M218.675 181.372H208.685V260.415H242.897V252.159H218.675V181.372Z" fill="white"/>
<path d="M590.136 181.372V239.788L529.317 177.131V260.415H539.96V202.927L600 263.752V181.372H590.136Z" fill="white"/>
<path d="M95.03 259.16V260.415L95.5822 259.16H95.03Z" fill="white"/>
<path d="M149.222 259.16H148.77L149.222 260.189V259.16Z" fill="white"/>
<path d="M349.197 244.43C344.592 248.769 338.818 251.665 332.586 252.761C326.355 253.857 319.938 253.105 314.129 250.598C308.32 248.091 303.372 243.939 299.896 238.653C296.42 233.368 294.567 227.181 294.567 220.856C294.567 214.53 296.42 208.343 299.896 203.058C303.372 197.772 308.32 193.62 314.129 191.113C319.938 188.606 326.355 187.855 332.586 188.951C338.818 190.047 344.592 192.942 349.197 197.281V185.788C342.915 181.838 335.689 179.642 328.271 179.431C320.853 179.22 313.514 181.001 307.018 184.588C300.522 188.175 295.106 193.437 291.334 199.826C287.563 206.216 285.574 213.499 285.574 220.918C285.574 228.337 287.563 235.621 291.334 242.01C295.106 248.4 300.522 253.662 307.018 257.249C313.514 260.836 320.853 262.616 328.271 262.405C335.689 262.194 342.915 259.999 349.197 256.048V244.43Z" fill="white"/>
<path d="M599.774 312.683V300.99C599.631 300.074 599.165 299.24 598.461 298.638C597.757 298.035 596.861 297.703 595.934 297.703H584.94C580.096 297.703 580.196 301.241 580.196 301.241V311.604H541.165C540.606 311.577 540.06 311.431 539.562 311.177C539.064 310.922 538.627 310.565 538.278 310.128C537.929 309.691 537.676 309.185 537.538 308.644C537.4 308.102 537.378 307.538 537.475 306.987V281.894H532.33V310.4C532.33 316.999 537.576 316.522 537.576 316.522H595.658C600.502 316.447 599.774 312.683 599.774 312.683ZM594.579 308.593C594.633 308.953 594.609 309.32 594.507 309.669C594.406 310.018 594.23 310.342 593.991 310.616C593.752 310.89 593.457 311.11 593.125 311.259C592.793 311.408 592.432 311.483 592.069 311.479H587.701C585.191 311.353 585.191 309.421 585.191 309.421V304.704C585.417 302.922 587.45 302.746 587.45 302.746H591.416C592.086 302.677 592.758 302.859 593.301 303.258C593.844 303.657 594.219 304.244 594.353 304.904L594.579 308.593Z" fill="white"/>
<path d="M524.774 310.977V281.869H519.553V307.916C519.547 308.908 519.151 309.857 518.452 310.561C517.753 311.265 516.805 311.666 515.813 311.68H507.053V301.868C507.064 301.297 506.953 300.729 506.726 300.204C506.5 299.679 506.164 299.208 505.741 298.823C505.318 298.438 504.818 298.148 504.273 297.972C503.729 297.796 503.154 297.739 502.585 297.803H480.874C477.284 297.803 477.912 293.763 477.912 293.763V288.745H507.078V283.726H472.49V297.954C472.49 303.173 476.958 302.571 476.958 302.571H497.766C502.159 302.571 501.782 305.557 501.782 305.557V311.604H451.18V301.316C451.18 297.778 447.189 297.728 447.189 297.728H435.768C435.225 297.668 434.676 297.723 434.156 297.888C433.636 298.053 433.156 298.325 432.747 298.687C432.338 299.048 432.009 299.491 431.782 299.987C431.554 300.483 431.433 301.021 431.426 301.567V312.483C431.402 312.993 431.482 313.502 431.66 313.981C431.838 314.459 432.111 314.897 432.463 315.267C432.815 315.637 433.238 315.933 433.706 316.136C434.175 316.338 434.68 316.444 435.191 316.447H445.984V323.047C446.019 323.822 445.75 324.581 445.234 325.162C444.719 325.743 443.998 326.1 443.223 326.158H431.426V331.001H445.984C446.693 331.022 447.399 330.892 448.055 330.62C448.71 330.348 449.301 329.94 449.787 329.423C450.273 328.906 450.644 328.292 450.876 327.621C451.107 326.95 451.194 326.238 451.13 325.531V316.623H519.327C520.078 316.693 520.834 316.594 521.541 316.332C522.248 316.07 522.886 315.652 523.41 315.11C523.933 314.568 524.327 313.915 524.563 313.199C524.8 312.484 524.872 311.724 524.774 310.977V310.977ZM445.532 308.593C445.587 308.953 445.562 309.32 445.461 309.669C445.36 310.019 445.183 310.342 444.945 310.616C444.706 310.891 444.41 311.11 444.078 311.259C443.746 311.408 443.386 311.483 443.022 311.479H438.705C436.195 311.353 436.32 309.421 436.32 309.421V304.704C436.571 302.922 438.579 302.746 438.579 302.746H442.545C443.218 302.676 443.894 302.858 444.441 303.256C444.988 303.655 445.368 304.242 445.507 304.904L445.532 308.593Z" fill="white"/>
<path d="M592.596 290.953C592.53 291.643 592.209 292.283 591.696 292.749C591.183 293.216 590.515 293.474 589.822 293.474C589.129 293.474 588.46 293.216 587.948 292.749C587.435 292.283 587.114 291.643 587.048 290.953C587.114 290.263 587.435 289.622 587.948 289.156C588.46 288.69 589.129 288.431 589.822 288.431C590.515 288.431 591.183 288.69 591.696 289.156C592.209 289.622 592.53 290.263 592.596 290.953Z" fill="white"/>
<path d="M408.534 290.953C408.534 291.498 408.372 292.032 408.069 292.486C407.766 292.94 407.334 293.294 406.83 293.503C406.325 293.712 405.77 293.766 405.235 293.66C404.699 293.553 404.207 293.29 403.821 292.904C403.435 292.518 403.172 292.026 403.065 291.491C402.959 290.956 403.013 290.401 403.222 289.896C403.431 289.392 403.785 288.961 404.239 288.658C404.693 288.354 405.227 288.192 405.773 288.192C406.506 288.192 407.208 288.483 407.726 289.001C408.243 289.518 408.534 290.22 408.534 290.953V290.953Z" fill="white"/>
<path d="M418.424 298.807H423.268V326.108C423.376 326.838 423.321 327.583 423.108 328.29C422.894 328.996 422.528 329.647 422.034 330.196C421.54 330.745 420.931 331.178 420.251 331.464C419.571 331.751 418.835 331.884 418.098 331.854H396.762C396.028 331.947 395.283 331.882 394.577 331.663C393.87 331.444 393.219 331.076 392.667 330.583C392.115 330.091 391.675 329.486 391.377 328.809C391.079 328.132 390.929 327.399 390.939 326.66V298.807H395.733V323.523C395.733 324.049 395.844 324.569 396.06 325.049C396.276 325.529 396.591 325.957 396.985 326.306C397.379 326.655 397.843 326.916 398.345 327.072C398.848 327.228 399.377 327.276 399.9 327.212H414.759C414.759 327.212 418.424 326.986 418.424 323.573V298.807Z" fill="white"/>
</g>
<defs>
<clipPath id="clip0_205_2">
<rect width="600" height="331.854" fill="white"/>
</clipPath>
</defs>
</svg>
