<svg width="250" height="250" viewBox="0 0 250 250" fill="none" xmlns="http://www.w3.org/2000/svg">
<path d="M219.104 157.491C219.104 157.491 224.601 148.156 189.36 143.514C189.36 143.514 204.094 132.247 167.724 124.77C137.202 118.521 59.0888 114.732 23.3708 52C23.3708 52 7.30679 144.066 186.649 154.706C142.824 169.41 122.016 174.203 72.5178 161.958C94.3298 177.49 125.229 190.564 169.305 197.69L147.919 178.695L220.409 167.829L220.786 171.694C220.786 171.694 237.051 163.89 219.104 157.491ZM209.792 154.656L216.946 158.394C216.946 158.394 210.62 160.301 209.892 154.656H209.792Z" fill="#AA182C"/>
<path d="M25.4766 103.867C25.4766 103.867 44.5526 186.975 176.732 155.634C176.732 155.634 75.6766 158.871 25.4766 103.867Z" fill="#AA182C"/>
</svg>
